<?xml version="1.0" encoding="UTF-8"?><svg id="Layer_1" xmlns="http://www.w3.org/2000/svg" viewBox="0 0 576 576"><defs><style>.cls-1{fill:#804321;}.cls-1,.cls-2{stroke-width:0px;}.cls-2{fill:#fff;}</style></defs><path class="cls-1" d="m576,576H0V0c192,0,384,0,576,0v576Zm-283.27-153.17c-.2-5.06.11-10.08,1.53-14.97.89-3.08,2.89-4.5,6.07-4.23,1.18.1,2.4.38,3.46.87,2.68,1.24,5.33,2.56,7.91,3.99,3.07,1.7,6.02,3.62,9.1,5.3,1.75.95,3.65,1.6,5.48,2.39,2.37,1.03,4.82,1.75,7.44,1.57,2.81-.19,3.86-1.34,3.72-4.17-.04-.86-.31-1.72-.58-2.55-.34-1.06-.89-2.07-1.16-3.15-.83-3.32-.58-6.46,1.62-9.31,1.81-2.34,4.24-3.62,6.96-4.41,7.2-2.1,14.29-1,21.23,1.18,3.57,1.12,6.96,2.82,10.43,4.25,3.54,1.46,6.94,3.27,10.86,3.63,4.35.4,7.16-2.3,6.15-6.5-.87-3.62-.16-6.93.76-10.34,1-3.73,3.29-6.34,6.59-8.13,4.38-2.38,9.05-4,13.86-5.25,3.48-.91,6.98-1.77,10.37-2.93,2.32-.79,4.63-1.84,6.33-3.76,2.27-2.57,1.76-5.15-1.41-6.49-1.76-.74-3.6-1.41-5.47-1.72-5.09-.83-9.61-2.91-13.83-5.75-.46-.31-.97-.56-1.44-.86-8.76-5.57-15.59-12.66-18.53-22.96-1.35-4.74-.18-8.62,3.25-12.01,2.85-2.82,6.34-4.54,9.98-6.04,2.36-.97,4.84-1.8,6.96-3.16,6.61-4.23,13-8.78,18.25-14.71,2.96-3.35,5.9-6.73,8.77-10.17,1.03-1.23,1.32-2.73.51-4.26-.86-1.61-2.28-2.13-4.01-2.07-.95.03-1.92.12-2.85-.02-5.33-.78-10.83-7.13-9.02-13.58.5-1.77.88-3.58,1.54-5.29,2.48-6.5,5.11-12.94,8.49-19.04.38-.69.72-1.44.92-2.2.87-3.29-1.56-5.83-4.85-5.03-1.15.28-2.24.83-3.32,1.34-1.16.54-2.24,1.23-3.4,1.76-4.76,2.14-9.73,3.62-14.87,4.53-1.65.29-3.31.7-4.97.77-2.98.13-4.83-.9-5.1-3.79-.06-.63-.28-1.25-.5-1.85-1.24-3.48-3.2-5.88-7.51-2.64-4.67,3.5-9.39,6.94-14.06,10.43-2.19,1.63-4.45,3.12-7.14,3.81-3.09.79-6.16,1.73-9.29,2.3-2.26.42-4.62.6-6.9.44-3.36-.24-6.75-.89-9.26-3.41-2.48-2.48-4.77-5.15-7.08-7.79-.4-.45-.54-1.15-.72-1.76-1.76-5.63-1.51-11.13.75-16.63,1.62-3.95,3.77-7.57,5.95-11.2,1.4-2.32,2.77-4.7,3.74-7.21,1.15-2.99-.62-5.29-3.85-5.21-1.38.03-2.85.45-4.11,1.03-2.99,1.38-5.94,1.75-9.04.48-.74-.3-1.57-.41-2.27-.77-.83-.43-1.74-.91-2.32-1.61-2.12-2.55-3.83-5.32-4.14-8.75-.11-1.27-.5-2.53-.54-3.8-.08-2.14-.12-4.3.08-6.42.22-2.31.69-4.58.13-6.91-.65-2.68-3.1-4.31-5.79-3.75-.86.18-1.72.41-2.53.74-1.79.71-3.37.31-5.05-.49-3.43-1.64-5.75-4.28-7.34-7.61-1.85-3.9-3.58-7.85-5.4-11.77-.4-.86-.84-1.74-1.42-2.47-1.12-1.41-2.82-1.73-4.25-.63-.97.75-1.86,1.79-2.37,2.9-1.77,3.84-3.44,7.74-5,11.67-1.46,3.68-3.87,6.36-7.47,8.04-1.53.71-2.98,1.04-4.61.42-.89-.34-1.83-.6-2.76-.79-2.69-.55-5.26,1.09-5.69,3.81-.26,1.63-.3,3.35-.11,4.99.3,2.62.85,5.2.39,7.86-.27,1.57-.52,3.16-.74,4.74-.47,3.39-2.25,6.11-4.43,8.62-.4.46-.99.83-1.56,1.07-4.02,1.67-8.08,2.66-12.18.21-.2-.12-.43-.25-.66-.29-1.25-.19-2.51-.56-3.75-.48-2.43.16-3.89,2.19-3.29,4.55.37,1.45,1,2.87,1.74,4.18,1.74,3.06,3.74,5.97,5.4,9.07,2.66,4.95,5.01,10.05,4.65,15.89-.18,3.03-.4,6.16-2.22,8.71-1.62,2.26-3.48,4.41-5.52,6.3-1.55,1.44-3.41,2.83-5.38,3.48-4.06,1.34-8.3,1.59-12.54.54-1.63-.4-3.29-.68-4.91-1.1-3.48-.91-6.92-1.93-9.87-4.15-4.02-3.03-8.1-5.99-12.16-8.97-1.35-.99-2.65-2.07-4.07-2.95-2.54-1.57-4.35-1.09-5.68,1.61-.66,1.34-1.02,2.85-1.4,4.31-.41,1.56-1.28,2.57-2.88,2.83-.86.14-1.77.31-2.61.18-8.02-1.22-15.85-3.05-22.98-7.16-1.15-.66-2.51-1.12-3.82-1.31-2.5-.37-4.58,1.72-4.24,4.22.14,1.08.61,2.14,1.08,3.15,1.8,3.84,3.83,7.57,5.44,11.48,1.72,4.2,3.22,8.52,4.54,12.87,1.95,6.42-3.75,12.79-9.03,13.53-1.09.15-2.22-.02-3.33.02-3.19.11-4.85,2.95-3.36,5.76.3.56.69,1.08,1.09,1.57,6.75,8.4,14.21,16.01,23.3,21.96,3.24,2.12,6.59,3.87,10.21,5.21,3.69,1.36,7.13,3.23,9.93,6.1,2.79,2.86,4.37,6.2,3.4,10.21-1.07,4.44-2.67,8.73-5.47,12.43-5.79,7.66-13.44,12.96-22.08,16.84-2.58,1.16-5.54,1.48-8.29,2.3-1.6.47-3.23,1-4.68,1.79-2.12,1.16-2.59,3.39-1.07,5.26.93,1.15,2.18,2.12,3.45,2.89,4.17,2.53,8.95,3.35,13.59,4.53,5.13,1.3,10.13,2.96,14.7,5.68,2,1.19,3.94,2.62,4.82,4.86,1.67,4.24,3.33,8.53,1.82,13.23-.12.37-.11.79-.15,1.19-.15,1.54.4,2.77,1.53,3.84,1.49,1.41,3.19,1.6,5.11,1.41,4.08-.41,7.58-2.44,11.28-3.9,5.12-2.01,10.02-4.62,15.56-5.46,5.26-.8,10.51-1.32,15.67.39,4.69,1.55,8.22,4.24,8.72,9.66.19,2.07-.35,3.94-1.05,5.84-.46,1.26-.98,2.57-1.08,3.89-.21,2.81.92,3.97,3.73,4.14,2.7.17,5.22-.58,7.65-1.69,1.16-.53,2.33-1.06,3.47-1.62,2.21-1.09,4.45-2.15,6.61-3.33,3.72-2.02,7.35-4.21,11.1-6.16,1.32-.69,2.85-1.11,4.33-1.29,3.29-.41,5.44,1.02,6.25,4.24.66,2.62,1.28,5.32,1.38,8.01.16,4.22-.14,8.46-.2,12.69-.03,2.21-.56,4.19-1.8,6.09-1.67,2.57-.15,5.16,2.95,5.37.16.01.32,0,.48,0,2,0,4-.04,6,.01,1.57.04,2.83-.52,3.68-1.83.92-1.44.38-2.79-.51-4-1.04-1.42-1.44-2.99-1.51-4.71-.1-2.24-.27-4.47-.42-6.7Z"/><path class="cls-2" d="m292.73,422.83c.14,2.23.32,4.47.42,6.7.08,1.72.47,3.3,1.51,4.71.89,1.22,1.43,2.57.51,4-.84,1.31-2.1,1.87-3.68,1.83-2-.05-4-.01-6-.01-.16,0-.32,0-.48,0-3.11-.21-4.63-2.8-2.95-5.37,1.24-1.91,1.77-3.88,1.8-6.09.06-4.23.37-8.47.2-12.69-.1-2.69-.72-5.38-1.38-8.01-.81-3.22-2.96-4.65-6.25-4.24-1.48.19-3.02.6-4.33,1.29-3.75,1.96-7.38,4.14-11.1,6.16-2.17,1.18-4.4,2.23-6.61,3.33-1.15.56-2.31,1.09-3.47,1.62-2.43,1.11-4.95,1.86-7.65,1.69-2.81-.17-3.94-1.34-3.73-4.14.1-1.32.61-2.63,1.08-3.89.69-1.89,1.24-3.77,1.05-5.84-.5-5.42-4.03-8.11-8.72-9.66-5.16-1.71-10.41-1.2-15.67-.39-5.55.85-10.44,3.45-15.56,5.46-3.71,1.46-7.2,3.49-11.28,3.9-1.92.19-3.62,0-5.11-1.41-1.14-1.08-1.68-2.3-1.53-3.84.04-.4.03-.81.15-1.19,1.51-4.7-.15-8.99-1.82-13.23-.89-2.24-2.82-3.67-4.82-4.86-4.57-2.73-9.57-4.39-14.7-5.68-4.64-1.17-9.42-1.99-13.59-4.53-1.27-.77-2.52-1.74-3.45-2.89-1.52-1.88-1.05-4.1,1.07-5.26,1.45-.8,3.08-1.32,4.68-1.79,2.75-.81,5.7-1.14,8.29-2.3,8.64-3.88,16.29-9.18,22.08-16.84,2.8-3.7,4.39-7.99,5.47-12.43.97-4.02-.61-7.35-3.4-10.21-2.8-2.87-6.24-4.74-9.93-6.1-3.63-1.34-6.97-3.09-10.21-5.21-9.09-5.94-16.55-13.56-23.3-21.96-.4-.5-.79-1.01-1.09-1.57-1.49-2.81.17-5.65,3.36-5.76,1.11-.04,2.24.13,3.33-.02,5.28-.74,10.98-7.11,9.03-13.53-1.32-4.35-2.81-8.66-4.54-12.87-1.6-3.91-3.64-7.64-5.44-11.48-.47-1-.93-2.07-1.08-3.15-.34-2.5,1.74-4.6,4.24-4.22,1.31.2,2.67.65,3.82,1.31,7.13,4.11,14.96,5.94,22.98,7.16.84.13,1.75-.05,2.61-.18,1.6-.26,2.47-1.27,2.88-2.83.38-1.46.74-2.97,1.4-4.31,1.33-2.69,3.14-3.18,5.68-1.61,1.42.88,2.72,1.96,4.07,2.95,4.06,2.98,8.14,5.94,12.16,8.97,2.95,2.22,6.39,3.24,9.87,4.15,1.62.42,3.28.7,4.91,1.1,4.24,1.05,8.48.8,12.54-.54,1.97-.65,3.82-2.04,5.38-3.48,2.04-1.89,3.9-4.04,5.52-6.3,1.82-2.55,2.04-5.67,2.22-8.71.35-5.84-1.99-10.94-4.65-15.89-1.66-3.1-3.66-6.01-5.4-9.07-.74-1.31-1.37-2.73-1.74-4.18-.61-2.36.86-4.39,3.29-4.55,1.23-.08,2.5.29,3.75.48.23.03.45.17.66.29,4.1,2.45,8.16,1.46,12.18-.21.57-.24,1.16-.61,1.56-1.07,2.17-2.5,3.96-5.22,4.43-8.62.22-1.58.46-3.16.74-4.74.46-2.66-.09-5.24-.39-7.86-.19-1.64-.15-3.36.11-4.99.43-2.72,3.01-4.36,5.69-3.81.94.19,1.87.45,2.76.79,1.62.62,3.08.3,4.61-.42,3.6-1.68,6.01-4.36,7.47-8.04,1.56-3.93,3.23-7.83,5-11.67.51-1.11,1.4-2.15,2.37-2.9,1.43-1.1,3.12-.78,4.25.63.59.74,1.03,1.61,1.42,2.47,1.81,3.91,3.54,7.87,5.4,11.77,1.59,3.33,3.91,5.98,7.34,7.61,1.68.8,3.26,1.2,5.05.49.81-.32,1.67-.56,2.53-.74,2.69-.56,5.14,1.07,5.79,3.75.56,2.32.09,4.6-.13,6.91-.2,2.12-.15,4.28-.08,6.42.05,1.27.43,2.52.54,3.8.31,3.43,2.03,6.2,4.14,8.75.58.7,1.49,1.18,2.32,1.61.7.36,1.53.47,2.27.77,3.1,1.27,6.05.9,9.04-.48,1.27-.58,2.73-1,4.11-1.03,3.24-.08,5,2.23,3.85,5.21-.97,2.51-2.34,4.89-3.74,7.21-2.19,3.63-4.33,7.25-5.95,11.2-2.26,5.5-2.51,11-.75,16.63.19.61.33,1.31.72,1.76,2.31,2.64,4.61,5.31,7.08,7.79,2.51,2.52,5.9,3.17,9.26,3.41,2.28.16,4.65-.02,6.9-.44,3.13-.58,6.2-1.52,9.29-2.3,2.69-.69,4.95-2.17,7.14-3.81,4.68-3.49,9.4-6.92,14.06-10.43,4.31-3.24,6.27-.84,7.51,2.64.21.6.44,1.22.5,1.85.28,2.89,2.12,3.92,5.1,3.79,1.67-.07,3.32-.48,4.97-.77,5.14-.92,10.11-2.39,14.87-4.53,1.16-.52,2.25-1.22,3.4-1.76,1.08-.51,2.17-1.06,3.32-1.34,3.29-.8,5.72,1.74,4.85,5.03-.2.76-.54,1.51-.92,2.2-3.38,6.1-6.01,12.54-8.49,19.04-.65,1.71-1.04,3.52-1.54,5.29-1.8,6.45,3.7,12.79,9.02,13.58.93.14,1.9.06,2.85.02,1.73-.06,3.16.46,4.01,2.07.81,1.53.52,3.03-.51,4.26-2.87,3.44-5.8,6.81-8.77,10.17-5.25,5.93-11.64,10.48-18.25,14.71-2.13,1.36-4.61,2.19-6.96,3.16-3.65,1.5-7.13,3.22-9.98,6.04-3.43,3.39-4.6,7.26-3.25,12.01,2.94,10.31,9.77,17.4,18.53,22.96.47.3.98.55,1.44.86,4.23,2.84,8.75,4.92,13.83,5.75,1.87.31,3.72.98,5.47,1.72,3.17,1.34,3.68,3.91,1.41,6.49-1.7,1.93-4.01,2.97-6.33,3.76-3.39,1.16-6.9,2.02-10.37,2.93-4.81,1.26-9.48,2.88-13.86,5.25-3.3,1.79-5.59,4.4-6.59,8.13-.92,3.42-1.63,6.72-.76,10.34,1.01,4.2-1.8,6.9-6.15,6.5-3.92-.36-7.33-2.17-10.86-3.63-3.47-1.43-6.86-3.13-10.43-4.25-6.94-2.18-14.03-3.28-21.23-1.18-2.72.79-5.15,2.08-6.96,4.41-2.2,2.85-2.45,5.99-1.62,9.31.27,1.08.82,2.08,1.16,3.15.27.83.54,1.69.58,2.55.14,2.83-.91,3.98-3.72,4.17-2.62.18-5.06-.54-7.44-1.57-1.83-.79-3.74-1.44-5.48-2.39-3.08-1.68-6.03-3.6-9.1-5.3-2.58-1.43-5.23-2.76-7.91-3.99-1.07-.49-2.29-.77-3.46-.87-3.19-.27-5.18,1.14-6.07,4.23-1.41,4.89-1.73,9.9-1.53,14.97Z"/></svg>