<?xml version="1.0" encoding="UTF-8"?>
<svg width="576px" height="576px" viewBox="0 0 576 576" version="1.1" xmlns="http://www.w3.org/2000/svg" xmlns:xlink="http://www.w3.org/1999/xlink">
    <title>MLD Logo</title>
    <g id="MLD-Logo" stroke="none" stroke-width="1" fill="none" fill-rule="evenodd">
        <path d="M288,0 C447.058008,0 576,128.941992 576,288 C576,447.058008 447.058008,576 288,576 C128.941992,576 0,447.058008 0,288 C0,128.941992 128.941992,0 288,0 Z M285.6,139.11 C284.63,139.86 283.74,140.9 283.23,142.01 C281.46,145.85 279.79,149.75 278.23,153.68 C276.77,157.36 274.36,160.04 270.76,161.72 C269.23,162.43 267.78,162.76 266.15,162.14 C265.26,161.8 264.32,161.54 263.39,161.35 C260.7,160.8 258.13,162.44 257.7,165.16 C257.44,166.79 257.4,168.51 257.59,170.15 C257.89,172.77 258.44,175.35 257.98,178.01 C257.71,179.58 257.46,181.17 257.24,182.75 C256.77,186.14 254.99,188.86 252.81,191.37 C252.41,191.83 251.82,192.2 251.25,192.44 C247.23,194.11 243.17,195.1 239.07,192.65 C238.87,192.53 238.64,192.4 238.41,192.36 C237.16,192.17 235.9,191.8 234.66,191.88 C232.23,192.04 230.77,194.07 231.37,196.43 C231.74,197.88 232.37,199.3 233.11,200.61 C234.85,203.67 236.85,206.58 238.51,209.68 C241.17,214.63 243.52,219.73 243.16,225.57 C242.98,228.6 242.76,231.73 240.94,234.28 C239.32,236.54 237.46,238.69 235.42,240.58 C233.87,242.02 232.01,243.41 230.04,244.06 C225.98,245.4 221.74,245.65 217.5,244.6 C215.87,244.2 214.21,243.92 212.59,243.5 C209.11,242.59 205.67,241.57 202.72,239.35 C198.7,236.32 194.62,233.36 190.56,230.38 C189.21,229.39 187.91,228.31 186.49,227.43 C183.95,225.86 182.14,226.34 180.81,229.04 C180.15,230.38 179.79,231.89 179.41,233.35 C179,234.91 178.13,235.92 176.53,236.18 C175.67,236.32 174.76,236.49 173.92,236.36 C165.9,235.14 158.07,233.31 150.94,229.2 C149.79,228.54 148.43,228.08 147.12,227.89 C144.62,227.52 142.54,229.61 142.88,232.11 C143.02,233.19 143.49,234.25 143.96,235.26 C145.76,239.1 147.79,242.83 149.4,246.74 C151.12,250.94 152.62,255.26 153.94,259.61 C155.89,266.03 150.19,272.4 144.91,273.14 C143.82,273.29 142.69,273.12 141.58,273.16 C138.39,273.27 136.73,276.11 138.22,278.92 C138.52,279.48 138.91,280 139.31,280.49 C146.06,288.89 153.52,296.5 162.61,302.45 C165.85,304.57 169.2,306.32 172.82,307.66 C176.51,309.02 179.95,310.89 182.75,313.76 C185.54,316.62 187.12,319.96 186.15,323.97 C185.08,328.41 183.48,332.7 180.68,336.4 C174.89,344.06 167.24,349.36 158.6,353.24 C156.02,354.4 153.06,354.72 150.31,355.54 C148.71,356.01 147.08,356.54 145.63,357.33 C143.51,358.49 143.04,360.72 144.56,362.59 C145.49,363.74 146.74,364.71 148.01,365.48 C151.1375,367.3775 154.608125,368.313125 158.105469,369.160156 L159.854902,369.580332 C160.437812,369.720625 161.02,369.8625 161.6,370.01 C166.73,371.31 171.73,372.97 176.3,375.69 C178.3,376.88 180.24,378.31 181.12,380.55 L181.263045,380.913559 L181.263045,380.913559 L181.547218,381.641614 C183.051282,385.528441 184.320571,389.482857 182.94,393.78 C182.82,394.15 182.83,394.57 182.79,394.97 C182.64,396.51 183.19,397.74 184.32,398.81 C185.81,400.22 187.51,400.41 189.43,400.22 C192.211818,399.940455 194.724008,398.90781 197.2138,397.816211 L198.209108,397.378072 C199.038512,397.013079 199.869091,396.651818 200.71,396.32 C205.83,394.31 210.73,391.7 216.27,390.86 C221.53,390.06 226.78,389.54 231.94,391.25 C236.63,392.8 240.16,395.49 240.66,400.91 C240.85,402.98 240.31,404.85 239.61,406.75 C239.15,408.01 238.63,409.32 238.53,410.64 C238.32,413.45 239.45,414.61 242.26,414.78 C244.96,414.95 247.48,414.2 249.91,413.09 C251.07,412.56 252.24,412.03 253.38,411.47 C255.59,410.38 257.83,409.32 259.99,408.14 C263.71,406.12 267.34,403.93 271.09,401.98 C272.41,401.29 273.94,400.87 275.42,400.69 C278.71,400.28 280.86,401.71 281.67,404.93 C282.33,407.55 282.95,410.25 283.05,412.94 C283.21,417.16 282.91,421.4 282.85,425.63 C282.82,427.84 282.29,429.82 281.05,431.72 C279.38,434.29 280.9,436.88 284,437.09 C284.16,437.101994 284.32,437.09 284.48,437.09 C286.48,437.09 288.48,437.05 290.48,437.101994 C292.05,437.14 293.31,436.58 294.16,435.27 C295.08,433.83 294.54,432.48 293.65,431.27 C292.61,429.85 292.21,428.28 292.14,426.56 C292.04,424.32 291.87,422.09 291.72,419.86 L291.73,419.83 C291.53,414.77 291.84,409.75 293.26,404.86 C294.15,401.78 296.15,400.36 299.33,400.63 C300.51,400.73 301.73,401.01 302.79,401.5 C305.47,402.74 308.12,404.06 310.7,405.49 C313.77,407.19 316.72,409.11 319.8,410.79 C321.55,411.74 323.45,412.39 325.28,413.18 C327.65,414.21 330.1,414.93 332.72,414.75 C335.53,414.56 336.58,413.41 336.44,410.58 C336.4,409.72 336.13,408.86 335.86,408.03 C335.52,406.97 334.97,405.96 334.7,404.88 C333.87,401.56 334.12,398.42 336.32,395.57 C338.13,393.23 340.56,391.95 343.28,391.16 C350.48,389.06 357.57,390.16 364.51,392.34 C368.08,393.46 371.47,395.16 374.94,396.59 C378.48,398.05 381.88,399.86 385.8,400.22 C390.15,400.62 392.96,397.92 391.95,393.72 C391.08,390.1 391.79,386.79 392.71,383.38 C393.71,379.65 396,377.04 399.3,375.25 C403.68,372.87 408.35,371.25 413.16,370 C416.64,369.09 420.14,368.23 423.53,367.07 C425.85,366.28 428.16,365.23 429.86,363.31 C432.13,360.74 431.62,358.16 428.45,356.82 C426.69,356.08 424.85,355.41 422.98,355.1 C417.89,354.27 413.37,352.19 409.15,349.35 C408.69,349.04 408.18,348.79 407.71,348.49 C398.95,342.92 392.12,335.83 389.18,325.53 C387.83,320.79 389,316.91 392.43,313.52 C395.28,310.7 398.77,308.98 402.41,307.48 C404.77,306.51 407.25,305.68 409.37,304.32 C415.98,300.09 422.37,295.54 427.62,289.61 C430.58,286.26 433.52,282.88 436.39,279.44 C437.42,278.21 437.71,276.71 436.9,275.18 C436.04,273.57 434.62,273.05 432.89,273.11 C431.94,273.14 430.97,273.23 430.04,273.09 C424.71,272.31 419.21,265.96 421.02,259.51 C421.52,257.74 421.9,255.93 422.56,254.22 C425.04,247.72 427.67,241.28 431.05,235.18 C431.43,234.49 431.77,233.74 431.97,232.98 C432.84,229.69 430.41,227.15 427.12,227.95 C425.97,228.23 424.88,228.78 423.8,229.29 C422.64,229.83 421.56,230.52 420.4,231.05 C415.64,233.19 410.67,234.67 405.53,235.58 C403.88,235.87 402.22,236.28 400.56,236.35 C397.58,236.48 395.73,235.45 395.46,232.56 C395.4,231.93 395.18,231.31 394.96,230.71 C393.72,227.23 391.76,224.83 387.45,228.07 C382.78,231.57 378.06,235.01 373.39,238.5 C371.2,240.13 368.94,241.62 366.25,242.31 C363.16,243.1 360.09,244.04 356.96,244.61 C354.7,245.03 352.34,245.21 350.06,245.05 C346.7,244.81 343.31,244.16 340.8,241.64 C338.32,239.16 336.03,236.49 333.72,233.85 C333.32,233.4 333.18,232.7 333,232.09 C331.24,226.46 331.49,220.96 333.75,215.46 C335.37,211.51 337.52,207.89 339.7,204.26 C341.1,201.94 342.47,199.56 343.44,197.05 C344.59,194.06 342.82,191.76 339.59,191.84 C338.21,191.87 336.74,192.29 335.48,192.87 C332.49,194.25 329.54,194.62 326.44,193.35 C326.228571,193.264286 326.009796,193.194082 325.788805,193.129125 L325.124315,192.939738 C324.793878,192.842653 324.47,192.734286 324.17,192.58 C323.34,192.15 322.43,191.67 321.85,190.97 C319.73,188.42 318.02,185.65 317.71,182.22 C317.6,180.95 317.21,179.69 317.17,178.42 C317.09,176.28 317.05,174.12 317.25,172 C317.2775,171.71125 317.308906,171.423125 317.341719,171.13543 L317.441875,170.273438 C317.640625,168.55125 317.8,166.8375 317.38,165.09 C316.73,162.41 314.28,160.78 311.59,161.34 C310.73,161.52 309.87,161.75 309.06,162.08 C307.27,162.79 305.69,162.39 304.01,161.59 C300.58,159.95 298.26,157.31 296.67,153.98 C294.82,150.08 293.09,146.13 291.27,142.21 C290.87,141.35 290.43,140.47 289.85,139.74 C288.73,138.33 287.03,138.01 285.6,139.11 Z" id="Combined-Shape" fill="#000000"></path>
    </g>
</svg>